<?xml version="1.0" encoding="UTF-8"?>
<svg version="1.1" xmlns="http://www.w3.org/2000/svg" width="512" height="512">
<path d="M0 0 C168.96 0 337.92 0 512 0 C512 168.96 512 337.92 512 512 C343.04 512 174.08 512 0 512 C0 343.04 0 174.08 0 0 Z " fill="#000000" transform="translate(0,0)"/>
<path d="M0 0 C2.61206646 -0.00202479 5.22413236 -0.00493959 7.8361969 -0.00869751 C13.29196808 -0.01412593 18.74761666 -0.00704157 24.20336914 0.00732422 C30.47004963 0.02363695 36.73643697 0.01836055 43.00311035 0.001845 C49.0825217 -0.01352292 55.16180531 -0.01175194 61.2412281 -0.0030098 C63.80500391 -0.00102295 66.36878732 -0.00341312 68.93255424 -0.01044846 C101.20530394 -0.07958811 101.20530394 -0.07958811 116.25390625 7.0234375 C117.00687988 7.37116211 117.75985352 7.71888672 118.53564453 8.07714844 C139.13939032 17.8993041 154.4216657 33.90042563 163.06640625 55.0234375 C168.24190163 69.90757492 171.1402292 86.30836996 165.12890625 101.3984375 C152.35379389 125.74670273 116.83900717 141.37148438 92.02099609 149.41430664 C82.54491239 152.3128611 72.84492155 154.47468224 63.12890625 156.3984375 C62.19216064 156.58825195 61.25541504 156.77806641 60.2902832 156.97363281 C52.51590604 158.42428302 44.96331351 158.70951099 37.06640625 158.6484375 C35.79289307 158.64166992 34.51937988 158.63490234 33.20727539 158.62792969 C-8.1502501 158.17796483 -48.06981442 146.12205983 -80.87109375 120.3984375 C-82.41796875 119.20927734 -82.41796875 119.20927734 -83.99609375 117.99609375 C-94.21452472 109.96910786 -100.0025068 102.46284373 -101.87109375 89.3984375 C-102.42002783 81.45196322 -102.1322884 74.03440897 -99.87109375 66.3984375 C-99.55269531 65.20605469 -99.23429687 64.01367188 -98.90625 62.78515625 C-94.5896799 47.25762589 -87.2869753 35.68272388 -75.87109375 24.3984375 C-75.14148438 23.65851563 -74.411875 22.91859375 -73.66015625 22.15625 C-52.98643077 2.4047725 -27.1004201 -0.07429934 0 0 Z " fill="#FEFEFE" transform="translate(222.87109375,286.6015625)"/>
<path d="M0 0 C0.93585938 0.31195313 1.87171875 0.62390625 2.8359375 0.9453125 C24.76482174 8.97465781 40.50534129 26.17059971 50.19921875 46.89453125 C58.36753137 65.16385656 58.624701 87.27960164 52.9921875 106.42578125 C47.99849673 119.32905916 41.75856824 130.07998486 32 140 C31.484375 140.59941406 30.96875 141.19882813 30.4375 141.81640625 C21.36884095 151.99503139 7.85784295 158.29621854 -5 162 C-5.99773437 162.31710938 -6.99546875 162.63421875 -8.0234375 162.9609375 C-28.6402367 168.73788124 -50.28341432 164.68398749 -69 155 C-88.93050532 143.36209264 -103.44322362 125.547889 -109.75 103.1875 C-115.70619922 80.29768786 -112.9879741 56.8045392 -101.17578125 36.4453125 C-97.96430778 31.20024598 -94.13474491 26.54070169 -90 22 C-89.41476563 21.34515625 -88.82953125 20.6903125 -88.2265625 20.015625 C-66.02647155 -3.53940108 -30.07393461 -10.40744754 0 0 Z " fill="#FEFEFE" transform="translate(284,81)"/>
<path d="M0 0 C0.33 0 0.66 0 1 0 C1 79.2 1 158.4 1 240 C-78.2 240 -157.4 240 -239 240 C-239 239.67 -239 239.34 -239 239 C-238.31188232 238.93006836 -237.62376465 238.86013672 -236.91479492 238.78808594 C-222.39812705 237.28557035 -208.19026073 235.43486396 -194 232 C-192.77023437 231.71511719 -191.54046875 231.43023437 -190.2734375 231.13671875 C-173.59177884 227.01173344 -157.31927374 220.75353785 -142 213 C-141.26185059 212.63148926 -140.52370117 212.26297852 -139.76318359 211.88330078 C-128.64072571 206.30493224 -118.12534213 200.23276739 -108 193 C-107.35466309 192.54399414 -106.70932617 192.08798828 -106.04443359 191.61816406 C-95.58461176 184.18222339 -86.17555462 175.95786353 -77 167 C-76.41557129 166.43603516 -75.83114258 165.87207031 -75.22900391 165.29101562 C-67.94002101 158.24942878 -61.23702989 151.00775989 -55 143 C-54.23558594 142.06414062 -53.47117187 141.12828125 -52.68359375 140.1640625 C-30.64865903 112.6469209 -15.04082052 79.24610254 -7 45 C-6.81840332 44.25202148 -6.63680664 43.50404297 -6.44970703 42.73339844 C-3.05793644 28.64450522 -1.46354167 14.4010477 0 0 Z " fill="#FDFDFD" transform="translate(511,272)"/>
<path d="M0 0 C0.33 0 0.66 0 1 0 C1.0402832 0.83442627 1.08056641 1.66885254 1.12207031 2.52856445 C1.65258753 11.59701465 2.95843018 20.27704695 4.75 29.1875 C4.88516022 29.86486206 5.02032043 30.54222412 5.15957642 31.2401123 C6.07817255 35.83289073 7.03055776 40.4176909 8 45 C8.19577637 45.93602051 8.39155273 46.87204102 8.59326172 47.83642578 C18.42196815 93.43398615 45.38940732 134.49792843 78 167 C78.68320313 167.70640625 79.36640625 168.4128125 80.0703125 169.140625 C95.92084826 185.41303813 115.09381513 198.23498465 135 209 C135.68271973 209.36963867 136.36543945 209.73927734 137.06884766 210.12011719 C168.33752966 226.83680602 201.91859163 235.25841799 237 239 C237 239.33 237 239.66 237 240 C158.79 240 80.58 240 0 240 C0 160.8 0 81.6 0 0 Z " fill="#FDFDFD" transform="translate(0,272)"/>
<path d="M0 0 C79.2 0 158.4 0 240 0 C240 78.21 240 156.42 240 237 C239.67 237 239.34 237 239 237 C238.93006836 236.40799805 238.86013672 235.81599609 238.78808594 235.20605469 C234.65433894 200.71385709 226.6318895 167.75930334 210 137 C209.6376123 136.32598145 209.27522461 135.65196289 208.90185547 134.95751953 C198.98953499 116.63500616 187.01737825 100.19021145 173.32910156 84.52880859 C172.19436288 83.22356729 171.07591255 81.90419515 169.9609375 80.58203125 C166.61714214 76.63513124 163.09616153 73.17864635 159.1484375 69.8359375 C156.81504533 67.84194783 154.56861914 65.76838659 152.3125 63.6875 C120.1528222 34.76339954 78.5771435 13.70395646 36 6 C35.03852051 5.82484863 34.07704102 5.64969727 33.08642578 5.46923828 C29.93482174 4.90336301 26.7809694 4.35348155 23.625 3.8125 C22.65054932 3.64524414 21.67609863 3.47798828 20.67211914 3.30566406 C13.80005841 2.17671175 6.94611675 1.4858762 0 1 C0 0.67 0 0.34 0 0 Z " fill="#FDFDFD" transform="translate(272,0)"/>
<path d="M0 0 C79.2 0 158.4 0 240 0 C240 0.33 240 0.66 240 1 C239.30253662 1.06469482 238.60507324 1.12938965 237.88647461 1.19604492 C168.55388362 7.80428091 105.15915705 38.09387874 59.69921875 91.80078125 C57.00777701 95.11180846 54.49467036 98.53977341 52 102 C51.00943692 103.33487467 50.01853614 104.6694988 49.02734375 106.00390625 C41.78629998 115.87951598 35.66381595 126.15243469 30 137 C29.63390625 137.69512695 29.2678125 138.39025391 28.890625 139.10644531 C23.96768515 148.50194737 19.65192317 158.03684248 16 168 C15.75008301 168.67724121 15.50016602 169.35448242 15.24267578 170.05224609 C7.43501397 191.50474997 2.86412992 214.25761498 1 237 C0.67 237 0.34 237 0 237 C0 158.79 0 80.58 0 0 Z " fill="#FDFDFD" transform="translate(0,0)"/>
</svg>
